<?xml version="1.0" encoding="UTF-8"?>
<svg width="189px" height="45px" viewBox="0 0 189 45" version="1.1" xmlns="http://www.w3.org/2000/svg" xmlns:xlink="http://www.w3.org/1999/xlink">
    <title>2备份 84</title>
    <g id="2备份-84" stroke="none" stroke-width="1" fill="none" fill-rule="evenodd">
        <path d="M22.1642,36.9715 L17.7602,39.1195 C17.5682,38.6085 17.3762,38.0805 17.1842,37.5355 C12.2882,38.3685 7.2002,39.0405 1.9202,39.5515 L0.2882,35.2795 C1.3112,34.4805 2.1122,33.4885 2.6882,32.3035 C4.2882,28.9435 5.7922,24.9445 7.2002,20.3035 L12.5282,20.3035 C10.7042,25.6485 8.8952,30.2565 7.1042,34.1275 C9.7272,33.9045 12.5442,33.5355 15.5522,33.0235 C14.1762,29.5045 13.1042,26.8315 12.3362,25.0075 L16.6562,23.6635 C18.5112,27.9525 20.2722,32.1925 21.9362,36.3835 L22.1642,36.9715 Z" id="Fill-1" fill="#000000"></path>
    </g>
</svg>