<?xml version="1.0" encoding="UTF-8"?>
<svg width="189px" height="45px" viewBox="0 0 189 45" version="1.1" xmlns="http://www.w3.org/2000/svg" xmlns:xlink="http://www.w3.org/1999/xlink">
    <title>2备份 97</title>
    <g id="2备份-97" stroke="none" stroke-width="1" fill="none" fill-rule="evenodd">
        <path d="M70.1758,11.952 C69.3498,14.057 68.0238,15.989 66.3358,17.664 C65.5328,18.461 63.8068,19.927 62.9288,20.64 C60.0358,22.987 55.9198,24.928 50.8318,26.784 L47.7598,21.84 C52.5918,20.369 56.4158,18.752 59.2328,16.992 C61.9848,15.232 63.9948,13.05 65.1358,10.656 C65.6648,9.545 66.3178,7.88 66.5758,5.952 C66.8038,4.252 66.9918,2.272 67.0568,1.42108547e-12 L72.5758,0.192 C72.5118,1.984 72.5408,3.937 72.0968,5.952 C71.7578,7.49 70.7518,10.486 70.1758,11.952" id="Fill-13" fill="#000000"></path>
    </g>
</svg>