<?xml version="1.0" encoding="UTF-8"?>
<svg width="189px" height="45px" viewBox="0 0 189 45" version="1.1" xmlns="http://www.w3.org/2000/svg" xmlns:xlink="http://www.w3.org/1999/xlink">
    <title>2备份 103</title>
    <g id="2备份-103" stroke="none" stroke-width="1" fill="none" fill-rule="evenodd">
        <path d="M59.2803,28.1278 L64.4643,28.1278 L64.4643,35.8558 C64.4643,36.9438 64.7043,37.7278 65.1843,38.2078 C65.5993,38.6238 66.3843,38.8798 67.5363,38.9758 C69.7123,39.1358 71.8563,39.1358 73.9683,38.9758 C75.1833,38.8798 76.0563,38.6488 76.5843,38.2798 C77.1123,37.9128 77.4883,37.2648 77.7123,36.3358 C78.0643,34.6398 78.2883,33.3768 78.3843,32.5438 L83.2803,34.3198 C82.8643,36.5598 82.4473,38.2878 82.0323,39.5038 C81.5513,40.9758 80.7673,42.0308 79.6803,42.6718 C78.6553,43.2158 77.1523,43.5518 75.1683,43.6798 C72.0003,43.8718 68.8153,43.8718 65.6163,43.6798 C63.4083,43.5518 61.8003,42.9838 60.7923,41.9758 C59.7843,40.9678 59.2803,39.2798 59.2803,36.9118 L59.2803,28.1278 Z" id="Fill-15" fill="#000000"></path>
    </g>
</svg>