<?xml version="1.0" encoding="UTF-8"?>
<svg width="189px" height="45px" viewBox="0 0 189 45" version="1.1" xmlns="http://www.w3.org/2000/svg" xmlns:xlink="http://www.w3.org/1999/xlink">
    <title>2备份 116</title>
    <g id="2备份-116" stroke="none" stroke-width="1" fill="none" fill-rule="evenodd">
        <path d="M173.6641,36.8158 L173.6641,44.8318 L168.5281,44.8318 L168.5281,36.8158 L168.5281,32.1118 L168.5281,19.2478 C167.5361,21.7758 166.5131,24.0168 165.4561,25.9678 C163.3441,29.8078 160.5441,33.5678 157.0571,37.2478 L154.0581,32.1188 L154.3681,31.8238 C157.6641,28.7518 160.3511,25.5678 162.4331,22.2718 C163.8721,19.9368 165.2961,17.0568 166.7041,13.6318 L157.3441,13.6318 L157.3441,8.8318 L168.5281,8.8318 L168.5281,0.2398 L173.6641,0.2398 L173.6641,8.8318 L186.3361,8.8318 L186.3361,13.6318 L175.5841,13.6318 C177.0241,17.0568 178.6081,20.0318 180.3361,22.5598 C182.5441,25.7928 185.3111,28.7358 188.6411,31.3918 L185.9521,36.9118 C182.2081,33.2638 179.2161,29.5368 176.9771,25.7278 C175.8551,23.7438 174.7521,21.4558 173.6641,18.8638 L173.6641,32.1118 L173.6641,36.8158 Z" id="Fill-21" fill="#000000"></path>
    </g>
</svg>