<?xml version="1.0" encoding="UTF-8"?>
<svg width="189px" height="45px" viewBox="0 0 189 45" version="1.1" xmlns="http://www.w3.org/2000/svg" xmlns:xlink="http://www.w3.org/1999/xlink">
    <title>2备份 90</title>
    <g id="2备份-90" stroke="none" stroke-width="1" fill="none" fill-rule="evenodd">
        <path d="M21.8887,9.4076 L42.5287,9.4076 C42.2407,24.8326 42.0647,33.8716 41.9997,36.5276 C41.9047,38.9276 41.3597,40.6876 40.3677,41.8076 C39.3127,42.8636 37.7437,43.4876 35.6637,43.6796 C33.6797,43.7756 31.8397,43.7596 30.1447,43.6316 L29.1357,38.2556 C30.6717,38.4476 32.1757,38.5436 33.6487,38.5436 C34.6717,38.5126 35.4557,38.2406 35.9997,37.7276 C36.4487,37.2476 36.7207,36.3836 36.8167,35.1356 C37.0727,30.5926 37.2477,23.5996 37.3437,14.1596 L21.8887,14.1596 L21.8887,9.4076 Z" id="Fill-5" fill="#000000"></path>
    </g>
</svg>