<?xml version="1.0" encoding="UTF-8"?>
<svg width="189px" height="45px" viewBox="0 0 189 45" version="1.1" xmlns="http://www.w3.org/2000/svg" xmlns:xlink="http://www.w3.org/1999/xlink">
    <title>2备份 95</title>
    <g id="2备份-95" stroke="none" stroke-width="1" fill="none" fill-rule="evenodd">
        <path d="M31.3926,14.16 C31.3926,14.64 31.3756,15.104 31.3436,15.552 C31.0876,22.784 30.3516,28.432 29.1356,32.496 C27.7916,37.008 25.4086,41.264 21.9846,45.264 L17.2806,42.336 C18.6876,40.927 19.9676,39.376 21.1206,37.68 L21.9366,36.384 C22.8646,34.816 23.6636,33.04 24.3356,31.056 C25.4556,27.408 26.1126,22.144 26.3046,15.264 C26.3356,14.912 26.3526,14.544 26.3526,14.16 L26.4966,9.408 L26.4966,9.216 C26.5596,6.016 26.6086,2.993 26.6406,0.144 L31.7286,0.144 C31.6636,2.064 31.5996,5.088 31.5366,9.216 L31.5366,9.408 L31.3926,14.16 Z" id="Fill-3" fill="#000000"></path>
    </g>
</svg>